<svg xmlns="http://www.w3.org/2000/svg" viewBox="0 0 512 512" width="512" height="512"><defs><linearGradient id="g" gradientUnits="userSpaceOnUse" x1="80" y1="432" x2="300" y2="212"><stop offset="0" stop-color="#38BDF8"/><stop offset="0.5" stop-color="#38BDF8"/><stop offset="0.78" stop-color="#4ADE80"/><stop offset="1" stop-color="#4ADE80"/></linearGradient></defs><path d="M256,60 L392,112 L392,250 C392,344 330,412 256,452 C182,412 120,344 120,250 L120,112 Z" fill="#0F3D24"/><rect x="150" y="428.0" width="261.6295090390226" height="44" rx="22.0" fill="url(#g)" transform="rotate(-45 150 450)"/><rect x="80" y="410.0" width="353.5533905932738" height="44" rx="22.0" fill="url(#g)" transform="rotate(-45 80 432)"/><rect x="110" y="292.0" width="268.70057685088807" height="44" rx="22.0" fill="url(#g)" transform="rotate(-45 110 314)"/><path d="M256,60 L392,112 L392,250 C392,344 330,412 256,452 C182,412 120,344 120,250 L120,112 Z" fill="#14532D" opacity="0.35"/><path d="M256,60 L392,112 L392,250 C392,344 330,412 256,452 Z" fill="#0B1220" opacity="0.18"/><path d="M256,60 L392,112 L392,250 C392,344 330,412 256,452 C182,412 120,344 120,250 L120,112 Z" fill="none" stroke="#22C55E" stroke-width="14" stroke-linejoin="round"/></svg>